<mxfile host="app.diagrams.net" modified="2024-05-26T03:53:15.333Z" agent="Mozilla/5.0 (X11; Ubuntu; Linux x86_64; rv:126.0) Gecko/20100101 Firefox/126.0" version="24.4.8" etag="WzKChXnAjEF2VI-vJFcq" type="github">
  <diagram name="第 1 页" id="8GK0GSkTZzhUc8XsvCqZ">
    <mxGraphModel>
      <root>
        <mxCell id="0" />
        <mxCell id="1" parent="0" />
      </root>
    </mxGraphModel>
  </diagram>
</mxfile>
